# AST/ASF file generated using VICON BodyLanguage
# -----------------------------------------------
:version 1.10
:name VICON
:units
  mass 1.0
  length 0.45
  angle deg
:documentation
   .ast/.asf automatically generated from VICON data using
   VICON BodyBuilder and BodyLanguage model FoxedUp or BRILLIANT.MOD
:root
   order TX TY TZ RX RY RZ
   axis XYZ
   position 0 0 0  
   orientation 0 0 0 
:bonedata
  begin
     id 1 
     name lhipjoint
     direction 0.722297 -0.617336 0.311742 
     length 2.6635 
     axis 0 0 0  XYZ
  end
  begin
     id 2 
     name lfemur
     direction 0.34202 -0.939693 0  
     length 7.39349  
     axis 0 0 20  XYZ
    dof rx ry rz
    limits (-160.0 20.0)
           (-70.0 70.0)
           (-60.0 70.0)
  end
  begin
     id 3 
     name ltibia
     direction 0.34202 -0.939693 0   
     length 7.36294   
     axis 0 0 20   XYZ
    dof rx
    limits (-10.0 170.0)
  end
  begin
     id 4 
     name lfoot
     direction 0.104879 -0.288152 0.951824   
     length 2.16981   
     axis -90 7.62852e-016 20   XYZ
    dof rx rz
    limits (-45.0 90.0)
           (-70.0 20.0)
  end
  begin
     id 5 
     name ltoes
     direction 1.53586e-011 -4.21895e-011 1   
     length 1.08218   
     axis -90 7.62852e-016 20   XYZ
    dof rx
    limits (-90.0 20.0)
  end
  begin
     id 6 
     name rhipjoint
     direction -0.75102 -0.589393 0.297631   
     length 2.78977  
     axis 0 0 0  XYZ 
  end
  begin
     id 7 
     name rfemur
     direction -0.34202 -0.939693 0   
     length 7.46076   
     axis 0 0 -20   XYZ
    dof rx ry rz
    limits (-160.0 20.0)
           (-70.0 70.0)
           (-70.0 60.0)
  end
  begin
     id 8 
     name rtibia
     direction -0.34202 -0.939693 0   
     length 7.31726   
     axis 0 0 -20   XYZ
    dof rx
    limits (-10.0 170.0)
 end
 begin
     id 9 
     name rfoot
     direction -0.107991 -0.296704 0.948844   
     length 2.09388  
     axis -90 -7.62852e-016 -20   XYZ
    dof rx rz
    limits (-45.0 90.0)
           (-20.0 70.0)
  end
  begin
     id 10 
     name rtoes
     direction -1.53559e-011 -4.21911e-011 1   
     length 1.04433   
     axis -90 -7.62852e-016 -20   XYZ
    dof rx
    limits (-90.0 20.0)
  end
  begin
     id 11 
     name lowerback
     direction 0.0165164 0.98272 0.184358   
     length 1.71896   
     axis 0 0 0   XYZ
    dof rx ry rz
    limits (-20.0 45.0)
           (-30.0 30.0)
           (-30.0 30.0)
  end
  begin
     id 12 
     name upperback
     direction -0.00887249 0.992297 0.123566   
     length 1.71504   
     axis 0 0 0   XYZ
    dof rx ry rz
    limits (-20.0 45.0)
           (-30.0 30.0)
           (-30.0 30.0)
  end
  begin
     id 13 
     name thorax
     direction -0.0157026 0.998908 0.0440032   
     length 1.77022   
     axis 0 0 0   XYZ
    dof rx ry rz
    limits (-20.0 45.0)
           (-30.0 30.0)
           (-30.0 30.0)
  end
  begin
     id 14 
     name lowerneck
     direction -0.0238856 0.998137 0.0561411   
     length 1.89341   
     axis 0 0 0   XYZ
    dof rx ry rz
    limits (-20.0 45.0)
           (-30.0 30.0)
           (-30.0 30.0)
  end
  begin
     id 15 
     name upperneck
     direction 0.0276574 0.952253 -0.304056   
     length 1.86999   
     axis 0 0 0   XYZ
    dof rx ry rz
    limits (-20.0 45.0)
           (-30.0 30.0)
           (-30.0 30.0)
  end
  begin
     id 16
     name head
     direction 0.00800083 0.994258 -0.106712  
     length 1.91492  
     axis 0 0 0   XYZ
    dof rx ry rz
    limits (-20.0 45.0)
           (-30.0 30.0)
           (-30.0 30.0)
  end
  begin
     id 17 
     name lclavicle
     direction 0.97203 0.225407 0.06595  
     length 3.34889  
     axis 0 0 0   XYZ
    dof ry rz
    limits (-20.0 10.0)
           (0.0 20.0)
  end
  begin
     id 18 
     name lhumerus
     direction 1 -4.48973e-011 2.20267e-027   
     length 4.85645   
     axis 180 -30 -90   XYZ
    dof rx ry rz
    limits (-60.0 90.0)
           (-90.0 90.0)
           (-90.0 90.0)
  end
  begin
     id 19
     name lradius
     direction 1 -4.4897e-011 4.60472e-027   
     length 2.79874   
     axis 180 -30 -90   XYZ
    dof rx
    limits (-10.0 170.0)
  end
  begin
     id 20
     name lwrist
     direction 1 -4.48952e-011 1.14928e-026   
     length 1.39937   
     axis -6.29373e-015 90 90   XYZ
    dof ry
    limits (-180.0 0.0)
 end
  begin
     id 21 
     name lhand
     direction 1 -4.48967e-011 2.29886e-026   
     length 0.573398   
     axis -1.46689e-014 90 90   XYZ
    dof rx rz
    limits (-90.0 90.0)
           (-45.0 45.0)
  end
  begin
     id 22 
     name lfingers
     direction 1 -4.48955e-011 4.59726e-026   
     length 0.462289   
     axis -2.93383e-014 90 90   XYZ
    dof rx
    limits (0.0 90.0)
  end
  begin
     id 23
     name lthumb
     direction 0.707107 -6.34866e-011 0.707107   
     length 0.663757   
     axis -90 45 5.69224e-014   XYZ
    dof rx rz
    limits (-45.0 45.0)
           (-45.0 45.0)
  end
  begin
     id 24 
     name rclavicle
     direction -0.981571 0.157346 0.108443   
     length 3.35257  
     axis 0 0 0   XYZ 
    dof ry rz
    limits (-10.0 20.0)
           (-20.0 0.0)
  end
  begin
     id 25 
     name rhumerus
     direction -1 -4.48967e-011 8.58308e-029  
     length 4.67018   
     axis 180 30 90   XYZ
    dof rx ry rz
    limits (-90.0 60.0)
           (-90.0 90.0)
           (-90.0 90.0)
  end
  begin
     id 26 
     name rradius
     direction -1 -4.48958e-011 4.52548e-027   
     length 2.65534   
     axis 180 30 90   XYZ
    dof rx
    limits (-10.0 170.0)
  end
  begin
     id 27 
     name rwrist
     direction -1 -4.48977e-011 1.14952e-026   
     length 1.32767   
     axis -6.29373e-015 -90 -90   XYZ
    dof ry
    limits (-180.0 0.0)
  end
  begin
     id 28
     name rhand
     direction -1 -4.48924e-011 2.29804e-026   
     length 0.594069   
     axis -1.46689e-014 -90 -90   XYZ
    dof rx rz
    limits (-90.0 90.0)
           (-45.0 45.0)
  end
  begin
     id 29
     name rfingers
     direction -1 -4.48998e-011 4.59888e-026   
     length 0.478954   
     axis -2.93383e-014 -90 -90   XYZ
    dof rx
    limits (0.0 90.0)
  end
  begin
     id 30
     name rthumb
     direction -0.707107 -6.34933e-011 0.707107   
     length 0.687685   
     axis -90 -45 -5.69224e-014   XYZ
    dof rx rz
    limits (-45.0 45.0)
           (-45.0 45.0)
  end
:hierarchy
  begin
    root lhipjoint rhipjoint lowerback
    lhipjoint lfemur
    lfemur ltibia
    ltibia lfoot
    lfoot ltoes
    rhipjoint rfemur
    rfemur rtibia
    rtibia rfoot
    rfoot rtoes
    lowerback upperback
    upperback thorax
    thorax lowerneck lclavicle rclavicle
    lowerneck upperneck
    upperneck head
    lclavicle lhumerus
    lhumerus lradius
    lradius lwrist
    lwrist lhand lthumb
    lhand lfingers
    rclavicle rhumerus
    rhumerus rradius
    rradius rwrist
    rwrist rhand rthumb
    rhand rfingers
  end

#!OML:ASF E:\pregnant2\Project 1\Capture day 1\Session 1\pregnant2.ASF
:FULLY-SPECIFIED
:DEGREES
280
root 5.28144 17.2222 5.24803 38.6378 -0.854828 -0.523634
lowerback -9.20722 -1.20035 -0.319052
upperback -11.9489 -1.53812 1.80221
thorax -7.39071 -0.673986 2.04157
lowerneck -20.1937 0.843317 1.38021
upperneck 22.7939 2.42038 -6.28949
head 10.7976 0.431058 -2.13943
rclavicle -1.24737e-014 5.96354e-016
rhumerus -72.6339 30.9907 -100.146
rradius 62.4567
rwrist -21.7779
rhand 2.03848 -10.607
rfingers 7.12502
rthumb 27.5414 -38.6123
lclavicle -1.24737e-014 5.96354e-016
lhumerus -54.4471 -30.8673 110.895
lradius 48.6406
lwrist 7.98532
lhand -0.0717898 34.5422
lfingers 7.12502
lthumb 25.5216 62.8528
rfemur -52.7823 5.31291 10.2099
rtibia 33.682
rfoot -17.2064 -23.4055
rtoes 4.02475
lfemur -53.3148 -3.58884 -10.5388
ltibia 32.2743
lfoot -11.7809 23.6493
ltoes -5.46277
281
root 5.26454 17.2328 5.27623 38.2693 -0.925669 -0.494815
lowerback -9.32617 -1.1551 -0.283412
upperback -12.0406 -1.47954 1.76794
thorax -7.4307 -0.648126 1.98655
lowerneck -20.1215 0.865011 1.37631
upperneck 22.9717 2.45136 -6.24831
head 10.8501 0.448167 -2.12213
rclavicle 2.045e-014 -5.36719e-015
rhumerus -72.9532 30.7867 -100.417
rradius 62.8169
rwrist -22.2982
rhand 2.63648 -10.8899
rfingers 7.12502
rthumb 28.1131 -38.8027
lclavicle 2.045e-014 -5.36719e-015
lhumerus -54.9027 -30.678 110.981
lradius 48.7842
lwrist 8.15473
lhand 0.300104 34.376
lfingers 7.12502
lthumb 25.8778 62.6351
rfemur -52.1964 5.50794 10.2166
rtibia 33.503
rfoot -17.4127 -23.4303
rtoes 4.47637
lfemur -52.6213 -3.79393 -10.4684
ltibia 31.9825
lfoot -11.7891 23.9052
ltoes -5.31181
282
root 5.24624 17.2446 5.30075 37.9341 -0.970613 -0.45151
lowerback -9.45772 -1.15265 -0.318392
upperback -12.1285 -1.47317 1.79245
thorax -7.45469 -0.640282 2.0313
lowerneck -20.0081 0.890535 1.38623
upperneck 23.0815 2.49924 -6.28182
head 10.872 0.466602 -2.13038
rclavicle 2.06239e-015 -1.59028e-014
rhumerus -73.3106 30.5898 -100.652
rradius 63.1684
rwrist -22.5245
rhand 2.8459 -10.5753
rfingers 7.12502
rthumb 28.3133 -38.4551
lclavicle 2.06239e-015 -1.59028e-014
lhumerus -55.2318 -30.3978 111.052
lradius 48.934
lwrist 8.5061
lhand 0.644848 34.3086
lfingers 7.12502
lthumb 26.2079 62.5191
rfemur -51.6656 5.69622 10.2106
rtibia 33.3372
rfoot -17.5526 -23.4987
rtoes 4.71153
lfemur -52.0101 -4.00246 -10.3954
ltibia 31.7073
lfoot -11.7435 24.1355
ltoes -5.25357
283
root 5.2278 17.2537 5.32709 37.6246 -1.03879 -0.419616
lowerback -9.64089 -1.1317 -0.324427
upperback -12.2188 -1.4442 1.79713
thorax -7.45458 -0.624571 2.03847
lowerneck -19.9287 0.911054 1.36563
upperneck 23.2352 2.53702 -6.25739
head 10.9148 0.483658 -2.11486
rclavicle 1.08835e-014 -6.36111e-015
rhumerus -73.7015 30.4234 -100.909
rradius 63.5646
rwrist -22.8033
rhand 3.2138 -10.7262
rfingers 7.12502
rthumb 28.6648 -38.5471
lclavicle 1.08835e-014 -6.36111e-015
lhumerus -55.4876 -30.1887 111.072
lradius 49.0762
lwrist 9.05077
lhand 1.09921 34.3876
lfingers 7.12502
lthumb 26.6428 62.5328
rfemur -51.1554 5.87795 10.2197
rtibia 33.178
rfoot -17.6734 -23.5326
rtoes 4.99112
lfemur -51.4238 -4.21353 -10.3056
ltibia 31.4585
lfoot -11.7601 24.3918
ltoes -5.07972
284
root 5.20901 17.2625 5.35313 37.3075 -1.1089 -0.382974
lowerback -9.85215 -1.09645 -0.32484
upperback -12.2697 -1.39699 1.78961
thorax -7.39565 -0.60128 2.02862
lowerneck -19.9088 0.914518 1.38247
upperneck 23.3799 2.55528 -6.2947
head 10.9664 0.486635 -2.13127
rclavicle 6.21202e-016 7.55382e-015
rhumerus -73.9498 30.2585 -101.113
rradius 63.9089
rwrist -23.0963
rhand 3.7153 -10.8446
rfingers 7.12502
rthumb 29.1439 -38.5835
lclavicle 6.21202e-016 7.55382e-015
lhumerus -55.7584 -29.9218 111.116
lradius 49.225
lwrist 9.58238
lhand 1.30492 34.4683
lfingers 7.12502
lthumb 26.8397 62.5834
rfemur -50.6482 6.0797 10.2081
rtibia 33.0267
rfoot -17.8864 -23.5515
rtoes 5.4572
lfemur -50.843 -4.40107 -10.2532
ltibia 31.2338
lfoot -11.7278 24.6401
ltoes -4.9665
285
root 5.18934 17.2697 5.37705 36.9885 -1.16079 -0.35592
lowerback -9.96556 -1.08177 -0.323255
upperback -12.3884 -1.37594 1.80374
thorax -7.46659 -0.588969 2.04388
lowerneck -19.7821 0.948046 1.39112
upperneck 23.5335 2.60692 -6.28889
head 11.0015 0.511063 -2.12522
rclavicle -5.59082e-015 -9.14409e-015
rhumerus -74.447 30.0761 -101.392
rradius 64.3196
rwrist -23.1907
rhand 4.10719 -10.8406
rfingers 7.12502
rthumb 29.518 -38.5141
lclavicle -5.59082e-015 -9.14409e-015
lhumerus -56.1253 -29.6931 111.218
lradius 49.3842
lwrist 10.3271
lhand 1.40909 34.5709
lfingers 7.12502
lthumb 26.9393 62.6707
rfemur -50.1432 6.26663 10.2337
rtibia 32.8823
rfoot -18.027 -23.597
rtoes 5.69457
lfemur -50.2656 -4.58055 -10.181
ltibia 31.0143
lfoot -11.7611 24.8524
ltoes -4.84446
286
root 5.16941 17.277 5.40271 36.6805 -1.22353 -0.340011
lowerback -10.1773 -1.03657 -0.289331
upperback -12.4775 -1.31789 1.77285
thorax -7.45244 -0.563674 1.99179
lowerneck -19.6378 0.963286 1.44321
upperneck 23.6957 2.61898 -6.28208
head 11.0348 0.521865 -2.1323
rclavicle -9.69075e-015 1.80894e-014
rhumerus -74.7147 29.8594 -101.645
rradius 64.5821
rwrist -23.3016
rhand 4.50219 -10.823
rfingers 7.12502
rthumb 29.895 -38.4292
lclavicle -9.69075e-015 1.80894e-014
lhumerus -56.4796 -29.4944 111.233
lradius 49.6128
lwrist 10.9702
lhand 1.72797 34.8221
lfingers 7.12502
lthumb 27.2444 62.8744
rfemur -49.6607 6.48801 10.2479
rtibia 32.756
rfoot -18.1977 -23.6636
rtoes 6.00223
lfemur -49.7116 -4.76879 -10.0949
ltibia 30.811
lfoot -11.7287 25.1071
ltoes -4.74698
287
root 5.1492 17.2852 5.42825 36.3634 -1.2892 -0.296351
lowerback -10.3285 -1.04252 -0.328447
upperback -12.5524 -1.32228 1.80964
thorax -7.45111 -0.560605 2.05105
lowerneck -19.5817 1.00998 1.46077
upperneck 23.8601 2.69935 -6.31926
head 11.0902 0.553309 -2.13972
rclavicle -5.71506e-016 5.36719e-015
rhumerus -75.1281 29.756 -101.882
rradius 64.9817
rwrist -23.3378
rhand 4.96249 -11.0053
rfingers 7.12502
rthumb 30.3342 -38.5316
lclavicle -5.71506e-016 5.36719e-015
lhumerus -56.7095 -29.2437 111.253
lradius 49.7697
lwrist 11.6526
lhand 1.9109 34.9414
lfingers 7.12502
lthumb 27.4194 62.9661
rfemur -49.1691 6.69011 10.2435
rtibia 32.6385
rfoot -18.3029 -23.7329
rtoes 5.99981
lfemur -49.1375 -4.94441 -10.0596
ltibia 30.6045
lfoot -11.8376 25.3245
ltoes -4.2956
288
root 5.12785 17.2902 5.45141 36.0592 -1.34831 -0.245752
lowerback -10.495 -1.03721 -0.352965
upperback -12.6429 -1.31347 1.81526
thorax -7.46044 -0.553411 2.06972
lowerneck -19.4229 1.05229 1.51806
upperneck 23.9951 2.76005 -6.36071
head 11.1141 0.581276 -2.15753
rclavicle 1.89094e-014 -1.03368e-014
rhumerus -75.4619 29.6456 -102.147
rradius 65.2881
rwrist -23.3941
rhand 5.22598 -11.0694
rfingers 7.12502
rthumb 30.5855 -38.549
lclavicle 1.89094e-014 -1.03368e-014
lhumerus -56.9931 -28.9727 111.266
lradius 49.9137
lwrist 12.2497
lhand 2.04284 35.0196
lfingers 7.12502
lthumb 27.5456 63.0243
rfemur -48.7106 6.85893 10.252
rtibia 32.5308
rfoot -18.3753 -23.7732
rtoes 5.97641
lfemur -48.5953 -5.10725 -10.0339
ltibia 30.4106
lfoot -11.8201 25.5096
ltoes -4.16854
